<svg xmlns="http://www.w3.org/2000/svg" version="1.0" preserveAspectRatio="xMidYMid meet" viewBox="156 137.9 187.86 224.4">
	<g transform="translate(0.000000,500.000000) scale(0.100000,-0.100000)" fill="#ffffff" stroke="none">
		<path d="M1560 2500 l0 -1120 250 0 250 0 0 870 0 870 323 0 c188 0 337 -4 359 -10 20 -6 58 -25 84 -43 136 -92 147 -290 22 -402 -74 -67 -83 -69 -386 -73 l-274 -4 4 -291 c5 -326 9 -350 78 -492 112 -232 354 -400 605 -422 l75 -6 0 250 0 250 -51 11 c-70 17 -133 63 -169 125 -16 29 -30 57 -30 64 0 6 23 14 53 18 91 11 198 45 281 88 62 32 103 63 177 137 82 81 102 109 142 190 56 113 76 186 84 300 7 108 -9 209 -50 319 -81 215 -256 382 -482 459 l-80 27 -632 3 -633 3 0 -1121z"/>
	</g>
</svg>